#!OML:ASF F:\VICON\USERDATA\INSTALL\rory3\rory3.ASF
:FULLY-SPECIFIED
:DEGREES
646
root 4.96619 16.5792 2.11381 6.39295 -13.2406 -7.16034
lowerback 20.8641 -0.841332 4.32027
upperback 4.25361 -0.0833319 1.56864
thorax -7.02905 -0.13031 -0.742388
lowerneck -14.3131 -0.316643 -1.58908
upperneck 36.7943 0.667801 -2.2373
head 15.2839 -0.320542 -0.568908
rclavicle -2.78299e-014 -6.36111e-015
rhumerus -36.8587 0.205923 -8.40733
rradius 27.7901
rwrist 11.2998
rhand -23.235 -51.1599
rfingers 7.12502
rthumb 3.21615 -81.1154
lclavicle -2.78299e-014 -6.36111e-015
lhumerus -34.2338 -1.74287 2.07657
lradius 23.5369
lwrist 11.2075
lhand -25.0704 -32.5211
lfingers 7.12502
lthumb 1.44359 -2.54622
rfemur -103.22 1.39117 28.0549
rtibia 100.189
rfoot 49.5537 5.699
rtoes -4.00278
lfemur -30.7222 2.30968 -23.0846
ltibia 49.2993
lfoot -21.615 10.0611
ltoes 15.4869
647
root 4.96515 16.5796 2.11268 6.36464 -13.3062 -7.14553
lowerback 20.8816 -0.830455 4.28127
upperback 4.25744 -0.0776296 1.55957
thorax -7.03394 -0.127016 -0.73146
lowerneck -14.2996 -0.33435 -1.67163
upperneck 36.7845 0.633012 -2.14979
head 15.2751 -0.334676 -0.522964
rclavicle -9.93923e-017 -4.05521e-014
rhumerus -36.7761 0.240102 -8.49102
rradius 27.6821
rwrist 11.3386
rhand -23.0897 -51.3242
rfingers 7.12502
rthumb 3.35643 -81.2775
lclavicle -9.93923e-017 -4.05521e-014
lhumerus -34.2124 -1.75008 2.04572
lradius 23.5026
lwrist 11.1782
lhand -25.0217 -32.7889
lfingers 7.12502
lthumb 1.49056 -2.8144
rfemur -103.157 1.46271 28.0273
rtibia 100.164
rfoot 49.6128 5.36885
rtoes -3.85166
lfemur -30.6942 2.40262 -23.1045
ltibia 49.3147
lfoot -21.6086 10.0468
ltoes 15.2815
648
root 4.96505 16.5802 2.11265 6.33439 -13.3582 -7.01969
lowerback 20.8586 -0.826997 4.14709
upperback 4.27007 -0.107375 1.51535
thorax -7.00953 -0.138551 -0.695454
lowerneck -14.403 -0.335204 -1.65041
upperneck 36.8107 0.624993 -2.14161
head 15.3122 -0.33515 -0.525566
rclavicle 1.22253e-014 5.96354e-015
rhumerus -36.6728 0.121871 -8.50685
rradius 27.6299
rwrist 11.5766
rhand -23.6488 -51.3395
rfingers 7.12502
rthumb 2.81651 -81.3007
lclavicle 1.22253e-014 5.96354e-015
lhumerus -34.2434 -1.67453 1.95635
lradius 23.5784
lwrist 11.252
lhand -24.7034 -32.6634
lfingers 7.12502
lthumb 1.79798 -2.69127
rfemur -103.162 1.46904 27.9087
rtibia 100.177
rfoot 49.5961 5.29663
rtoes -3.82183
lfemur -30.6533 2.45428 -23.246
ltibia 49.2855
lfoot -21.599 10.038
ltoes 15.4365
649
root 4.96251 16.5754 2.09704 6.42727 -13.3666 -7.0805
lowerback 21.0169 -0.834624 4.10288
upperback 4.19002 -0.111768 1.54935
thorax -7.18089 -0.142979 -0.630531
lowerneck -14.5061 -0.308859 -1.5709
upperneck 36.9357 0.675688 -2.22733
head 15.3992 -0.317328 -0.569955
rclavicle 1.44119e-014 2.0276e-014
rhumerus -36.5922 0.0246288 -8.48322
rradius 27.6259
rwrist 11.7672
rhand -24.2957 -51.3011
rfingers 7.12502
rthumb 2.19176 -81.2696
lclavicle 1.44119e-014 2.0276e-014
lhumerus -34.2892 -1.39058 1.75642
lradius 23.604
lwrist 10.9292
lhand -24.4412 -32.5555
lfingers 7.12502
lthumb 2.05122 -2.58563
rfemur -103.248 1.57751 27.9798
rtibia 100.069
rfoot 49.7623 5.09659
rtoes -3.53367
lfemur -30.8408 2.49149 -23.1491
ltibia 49.2802
lfoot -21.5191 9.95106
ltoes 15.8901
650
root 4.96568 16.58 2.10673 6.44341 -13.4005 -7.07013
lowerback 20.811 -0.834303 4.18961
upperback 4.22911 -0.108177 1.5214
thorax -7.02903 -0.140347 -0.712874
lowerneck -14.5821 -0.324933 -1.60885
upperneck 37.0849 0.656825 -2.19718
head 15.4908 -0.328841 -0.556267
rclavicle 1.37161e-014 -2.8625e-014
rhumerus -36.5953 0.0159304 -8.48588
rradius 27.5789
rwrist 11.6903
rhand -23.7501 -51.2319
rfingers 7.12502
rthumb 2.7187 -81.1943
lclavicle 1.37161e-014 -2.8625e-014
lhumerus -34.2024 -1.18816 1.64975
lradius 23.4805
lwrist 10.5757
lhand -24.3711 -32.3317
lfingers 7.12502
lthumb 2.11897 -2.3625
rfemur -103.23 1.51821 27.9908
rtibia 100.096
rfoot 49.715 4.9246
rtoes -3.05335
lfemur -30.7593 2.51398 -23.1897
ltibia 49.2104
lfoot -21.564 9.97729
ltoes 16.0056
651
root 4.96599 16.5846 2.1081 6.45812 -13.4146 -7.07112
lowerback 20.6906 -0.824004 4.25705
upperback 4.27294 -0.0911777 1.4964
thorax -6.9167 -0.131355 -0.783853
lowerneck -14.638 -0.368539 -1.73318
upperneck 37.1201 0.572224 -2.03417
head 15.5199 -0.359615 -0.479846
rclavicle -1.93815e-014 1.63003e-014
rhumerus -36.6724 0.0761026 -8.55073
rradius 27.6294
rwrist 11.5128
rhand -23.2145 -51.296
rfingers 7.12502
rthumb 3.23599 -81.2512
lclavicle -1.93815e-014 1.63003e-014
lhumerus -34.0092 -1.12794 1.64437
lradius 23.335
lwrist 10.438
lhand -24.4523 -31.9868
lfingers 7.12502
lthumb 2.04051 -2.01682
rfemur -103.205 1.50183 28.0113
rtibia 100.064
rfoot 49.7225 4.59517
rtoes -2.2458
lfemur -30.7462 2.56313 -23.1936
ltibia 49.1618
lfoot -21.5617 9.98637
ltoes 15.5953
652
root 4.96694 16.5897 2.10526 6.40701 -13.4115 -7.03241
lowerback 20.7398 -0.842845 4.2319
upperback 4.27412 -0.119371 1.48306
thorax -6.94273 -0.144988 -0.776272
lowerneck -14.6584 -0.373107 -1.76479
upperneck 37.1106 0.556919 -1.98545
head 15.5196 -0.363905 -0.456094
rclavicle -1.20265e-014 -6.36111e-015
rhumerus -36.7272 0.284335 -8.64694
rradius 27.814
rwrist 11.4634
rhand -23.267 -51.4381
rfingers 7.12502
rthumb 3.18524 -81.3941
lclavicle -1.20265e-014 -6.36111e-015
lhumerus -33.976 -1.18451 1.64412
lradius 23.3298
lwrist 10.4342
lhand -24.569 -31.5104
lfingers 7.12502
lthumb 1.92786 -1.53938
rfemur -103.136 1.4542 28.002
rtibia 100.052
rfoot 49.7552 4.43062
rtoes -1.712
lfemur -30.6536 2.57016 -23.233
ltibia 49.0751
lfoot -21.5306 9.97116
ltoes 15.3173
653
root 4.9674 16.5918 2.09988 6.33915 -13.3972 -7.06232
lowerback 20.8837 -0.867504 4.23535
upperback 4.24758 -0.138965 1.51411
thorax -7.04858 -0.156328 -0.738227
lowerneck -14.5978 -0.33397 -1.69004
upperneck 37.1082 0.645308 -2.13366
head 15.5057 -0.336943 -0.517228
rclavicle -2.00773e-014 1.78906e-014
rhumerus -36.7114 0.400099 -8.64249
rradius 27.8962
rwrist 11.5658
rhand -23.0692 -51.354
rfingers 7.12502
rthumb 3.3763 -81.307
lclavicle -2.00773e-014 1.78906e-014
lhumerus -34.0773 -1.36335 1.68536
lradius 23.4394
lwrist 10.4549
lhand -24.7039 -30.8557
lfingers 7.12502
lthumb 1.7975 -0.883491
rfemur -103.034 1.42915 28.0692
rtibia 100.037
rfoot 49.7102 4.50674
rtoes -2.18307
lfemur -30.5571 2.54372 -23.1884
ltibia 49.0147
lfoot -21.4561 9.94956
ltoes 15.4464
654
root 4.96771 16.5922 2.09727 6.29591 -13.4036 -7.00616
lowerback 20.9128 -0.865322 4.1884
upperback 4.25129 -0.144569 1.51636
thorax -7.06018 -0.158272 -0.707429
lowerneck -14.4596 -0.296572 -1.64967
upperneck 37.0072 0.738779 -2.28131
head 15.4248 -0.310357 -0.569137
rclavicle -2.97183e-014 0
rhumerus -36.7405 0.508846 -8.6345
rradius 28.0271
rwrist 11.4907
rhand -22.9669 -51.2957
rfingers 7.12502
rthumb 3.47505 -81.2472
lclavicle -2.97183e-014 0
lhumerus -34.0827 -1.33445 1.64375
lradius 23.5495
lwrist 10.0733
lhand -24.3869 -29.6452
lfingers 7.12502
lthumb 2.10372 0.324164
rfemur -103.018 1.39747 28.0509
rtibia 100.036
rfoot 49.7439 4.60776
rtoes -2.48065
lfemur -30.5142 2.51705 -23.2481
ltibia 48.9688
lfoot -21.3905 10.0103
ltoes 15.5402
655
root 4.96909 16.5911 2.09777 6.29971 -13.4142 -6.87939
lowerback 20.8036 -0.852427 4.11984
upperback 4.2718 -0.151869 1.48511
thorax -6.98052 -0.159138 -0.701353
lowerneck -14.3466 -0.307523 -1.72777
upperneck 36.8447 0.736019 -2.26674
head 15.3181 -0.317149 -0.546422
rclavicle -4.34344e-014 -7.95139e-016
rhumerus -36.8709 0.714729 -8.6764
rradius 28.3141
rwrist 11.241
rhand -23.0501 -51.4344
rfingers 7.12502
rthumb 3.39475 -81.3871
lclavicle -4.34344e-014 -7.95139e-016
lhumerus -34.0209 -1.1417 1.55057
lradius 23.631
lwrist 9.71434
lhand -23.7608 -28.7933
lfingers 7.12502
lthumb 2.70836 1.16929
rfemur -103.109 1.33144 27.9553
rtibia 100.053
rfoot 49.775 4.67939
rtoes -2.34022
lfemur -30.5473 2.46747 -23.393
ltibia 48.9538
lfoot -21.3791 10.0757
ltoes 15.6028
656
root 4.97007 16.59 2.09491 6.35367 -13.4002 -6.8823
lowerback 20.7249 -0.849023 4.16358
upperback 4.25685 -0.141317 1.48982
thorax -6.95472 -0.154465 -0.724365
lowerneck -14.2735 -0.342481 -1.85282
upperneck 36.7842 0.682367 -2.1669
head 15.2701 -0.341849 -0.489715
rclavicle -6.65929e-015 3.97569e-016
rhumerus -36.9463 0.700128 -8.60565
rradius 28.4381
rwrist 11.1668
rhand -22.6319 -51.5786
rfingers 7.12502
rthumb 3.79858 -81.5245
lclavicle -6.65929e-015 3.97569e-016
lhumerus -33.9468 -1.09911 1.54254
lradius 23.6131
lwrist 9.71911
lhand -23.5416 -29.1036
lfingers 7.12502
lthumb 2.92004 0.856107
rfemur -103.167 1.28456 27.9946
rtibia 100.036
rfoot 49.6631 4.57195
rtoes -2.21629
lfemur -30.6384 2.39907 -23.3859
ltibia 48.9662
lfoot -21.3691 10.0953
ltoes 15.6274
657
root 4.96876 16.5872 2.08713 6.43008 -13.3697 -6.94977
lowerback 20.7609 -0.85114 4.19453
upperback 4.20036 -0.129 1.53795
thorax -7.03477 -0.150524 -0.692417
lowerneck -14.1995 -0.353247 -1.95111
upperneck 36.7618 0.668358 -2.09904
head 15.2412 -0.35135 -0.445314
rclavicle 9.24349e-015 3.22031e-014
rhumerus -36.9274 0.606451 -8.4885
rradius 28.397
rwrist 11.2067
rhand -22.303 -51.6675
rfingers 7.12502
rthumb 4.11617 -81.6075
lclavicle 9.24349e-015 3.22031e-014
lhumerus -33.8989 -1.20866 1.60757
lradius 23.4923
lwrist 9.87498
lhand -23.7204 -29.8048
lfingers 7.12502
lthumb 2.74735 0.157234
rfemur -103.217 1.28419 28.091
rtibia 99.9897
rfoot 49.614 4.30104
rtoes -1.97056
lfemur -30.7648 2.3457 -23.2955
ltibia 48.9782
lfoot -21.3043 10.0715
ltoes 15.7065
658
root 4.96857 16.5839 2.08385 6.44871 -13.3799 -6.94743
lowerback 20.8032 -0.833778 4.18246
upperback 4.17105 -0.103797 1.55642
thorax -7.08806 -0.139138 -0.671678
lowerneck -14.0747 -0.34856 -1.96021
upperneck 36.6285 0.685751 -2.13544
head 15.1473 -0.34735 -0.453668
rclavicle 1.35174e-014 -1.98785e-015
rhumerus -36.912 0.556011 -8.392
rradius 28.2519
rwrist 11.2309
rhand -22.6385 -51.6224
rfingers 7.12502
rthumb 3.79217 -81.5684
lclavicle 1.35174e-014 -1.98785e-015
lhumerus -33.8562 -1.27401 1.67212
lradius 23.4213
lwrist 10.0133
lhand -23.9488 -30.6777
lfingers 7.12502
lthumb 2.52679 -0.712873
rfemur -103.259 1.29466 28.1022
rtibia 99.9785
rfoot 49.6703 4.11464
rtoes -1.78818
lfemur -30.8025 2.31564 -23.2906
ltibia 48.9828
lfoot -21.2613 10.0505
ltoes 15.9042
